<?xml version="1.0"?>
<svg xmlns="http://www.w3.org/2000/svg" xmlns:xlink="http://www.w3.org/1999/xlink" xmlns:svgjs="http://svgjs.com/svgjs" version="1.1" width="512" height="512" x="0" y="0" viewBox="0 0 512 512" style="enable-background:new 0 0 512 512" xml:space="preserve" class=""><g><path xmlns="http://www.w3.org/2000/svg" d="m24 496h112a8.00008 8.00008 0 0 0 8-8v-160a32.03635 32.03635 0 0 0 32-32v-80a40.04552 40.04552 0 0 0 -40-40h-9.0127a31.94168 31.94168 0 0 0 1.0127-8v-32a32.03635 32.03635 0 0 0 -32-32h-19.05566a20.94437 20.94437 0 0 0 -18.7334 30.31055l5.78906 11.57763v22.11182a31.94168 31.94168 0 0 0 1.0127 8h-9.0127a40.04552 40.04552 0 0 0 -40 40v80a32.03635 32.03635 0 0 0 32 32v124.00024l-28.7998 21.59986a7.99927 7.99927 0 0 0 -3.2002 6.3999v8a8.00008 8.00008 0 0 0 8 8zm104-16h-42.667l20.4209-15.31543 22.2461 5.56152zm-64-192h64v165.75366l-22.05957-5.51489a7.99851 7.99851 0 0 0 -1.94043-.23071v-128.00806h-16v135.75366l-24-6zm80 24v-56h16v40a16.01833 16.01833 0 0 1 -16 16zm-48-128a16.01833 16.01833 0 0 1 -16-16v-16h20.68652l11.31348 11.31348v4.68652a16.01833 16.01833 0 0 1 -16 16zm-19.05566-64h19.05566a16.01833 16.01833 0 0 1 16 16v4.686l-2.34277-2.34278a8.00076 8.00076 0 0 0 -5.65723-2.34322h-27.05566l-4.42188-8.84424a4.94377 4.94377 0 0 1 4.42188-7.15576zm-20.94434 72h18.86792a31.9103 31.9103 0 0 0 42.26416 0h18.86792a24.02718 24.02718 0 0 1 24 24v24h-16v-16h-16v48h-64v-48h-16v16h-16v-24a24.02718 24.02718 0 0 1 24-24zm-24 104v-40h16v56a16.01833 16.01833 0 0 1 -16-16zm25.75391 168.68457 16 4.00024-6.55371 4.91529a7.99927 7.99927 0 0 0 -3.2002 6.3999h-26.667z" fill="#fed136" data-original="#000000" style="" class=""/><path xmlns="http://www.w3.org/2000/svg" d="m456 176h-9.0127a31.95275 31.95275 0 0 0 1.0127-8v-22.11157l5.79-11.57837a20.94556 20.94556 0 0 0 -18.73434-30.31006h-19.05566a32.03635 32.03635 0 0 0 -32 32v32a31.95275 31.95275 0 0 0 1.0127 8h-9.0127a40.04552 40.04552 0 0 0 -40 40v80a32.03635 32.03635 0 0 0 32 32v160a8.00008 8.00008 0 0 0 8 8h112a8.00008 8.00008 0 0 0 8-8v-8a7.99927 7.99927 0 0 0 -3.2002-6.3999l-28.7998-21.59986v-124.00024a32.03635 32.03635 0 0 0 32-32v-80a40.04552 40.04552 0 0 0 -40-40zm-40 8a16.01833 16.01833 0 0 1 -16-16v-4.68652l11.31348-11.31348h20.68652v16a16.01833 16.01833 0 0 1 -16 16zm0-64h19.05566a4.945 4.945 0 0 1 4.42286 7.15527l-4.42237 8.84473h-27.05615a8.00076 8.00076 0 0 0 -5.65723 2.34326l-2.34277 2.34274v-4.686a16.01833 16.01833 0 0 1 16-16zm-40 72h18.86768a31.91093 31.91093 0 0 0 42.26464 0h18.86768a24.02718 24.02718 0 0 1 24 24v24h-16v-16h-16v48h-64v-48h-16v16h-16v-24a24.02718 24.02718 0 0 1 24-24zm8 184h24v72.00708a7.961 7.961 0 0 0 -1.94043.23169l-22.05957 5.51489zm40 0h24v73.75366l-24 6zm24-16h-24v-40h-16v40h-24v-72h64zm-96-64v-40h16v56a16.01833 16.01833 0 0 1 -16-16zm32 184v-9.75391l22.24609-5.56152 20.42091 15.31543zm64 0a7.99927 7.99927 0 0 0 -3.2002-6.3999l-6.55371-4.91529 16-4.00024 20.42091 15.31543zm16-168v-56h16v40a16.01833 16.01833 0 0 1 -16 16z" fill="#fed136" data-original="#000000" style="" class=""/><path xmlns="http://www.w3.org/2000/svg" d="m88 16v72h16v-32h32v-16h-32v-24z" fill="#fed136" data-original="#000000" style="" class=""/><path xmlns="http://www.w3.org/2000/svg" d="m424 88v-72h-16v24h-32v16h32v32z" fill="#fed136" data-original="#000000" style="" class=""/><path xmlns="http://www.w3.org/2000/svg" d="m152 40h16v16h-16z" fill="#fed136" data-original="#000000" style="" class=""/><path xmlns="http://www.w3.org/2000/svg" d="m184 40h16v16h-16z" fill="#fed136" data-original="#000000" style="" class=""/><path xmlns="http://www.w3.org/2000/svg" d="m216 40h16v16h-16z" fill="#fed136" data-original="#000000" style="" class=""/><path xmlns="http://www.w3.org/2000/svg" d="m248 40h16v16h-16z" fill="#fed136" data-original="#000000" style="" class=""/><path xmlns="http://www.w3.org/2000/svg" d="m280 40h16v16h-16z" fill="#fed136" data-original="#000000" style="" class=""/><path xmlns="http://www.w3.org/2000/svg" d="m312 40h16v16h-16z" fill="#fed136" data-original="#000000" style="" class=""/><path xmlns="http://www.w3.org/2000/svg" d="m344 40h16v16h-16z" fill="#fed136" data-original="#000000" style="" class=""/></g></svg>
