<?xml version="1.0"?>
<svg xmlns="http://www.w3.org/2000/svg" xmlns:xlink="http://www.w3.org/1999/xlink" xmlns:svgjs="http://svgjs.com/svgjs" version="1.1" width="512" height="512" x="0" y="0" viewBox="0 0 512 512" style="enable-background:new 0 0 512 512" xml:space="preserve" class=""><g><g xmlns="http://www.w3.org/2000/svg"><path d="m236 395.999h186c5.523 0 10-4.478 10-10s-4.477-10-10-10h-186c-5.523 0-10 4.478-10 10s4.477 10 10 10z" fill="#fed136" data-original="#000000" style="" class=""/><path d="m236 435.999h186c5.523 0 10-4.478 10-10s-4.477-10-10-10h-186c-5.523 0-10 4.478-10 10s4.477 10 10 10z" fill="#fed136" data-original="#000000" style="" class=""/><path d="m136 325.999c-5.523 0-10 4.478-10 10v40c0 5.522 4.477 10 10 10s10-4.478 10-10v-40c0-5.522-4.477-10-10-10z" fill="#fed136" data-original="#000000" style="" class=""/><path d="m236 355.999h186c5.523 0 10-4.478 10-10v-60c0-5.522-4.477-10-10-10h-186c-5.523 0-10 4.478-10 10v60c0 5.523 4.477 10 10 10zm10-60h166v40h-166z" fill="#fed136" data-original="#000000" style="" class=""/><path d="m333.781 57.208-28.28-28.28c-3.904-3.902-10.238-3.904-14.142 0l-37.359 37.36-37.359-37.359c-3.903-3.903-10.237-3.904-14.142 0l-28.28 28.28c-3.905 3.905-3.905 10.237 0 14.143l37.359 37.358-37.359 37.358c-3.905 3.905-3.906 10.237 0 14.143l28.28 28.28c3.904 3.902 10.238 3.904 14.142 0l37.359-37.36 37.359 37.359c3.903 3.903 10.237 3.904 14.142 0l28.28-28.28c3.905-3.905 3.905-10.237 0-14.143l-37.359-37.358 37.359-37.358c3.905-3.905 3.906-10.237 0-14.143zm-58.572 44.43c-3.903 3.904-3.905 10.237 0 14.143l37.359 37.358-14.138 14.138-37.359-37.358c-3.905-3.905-10.237-3.905-14.142 0l-37.359 37.358-14.138-14.138 37.359-37.358c3.903-3.904 3.905-10.237 0-14.143l-37.359-37.358 14.138-14.138 37.359 37.358c3.904 3.904 10.237 3.904 14.142 0l37.359-37.358 14.138 14.138z" fill="#fed136" data-original="#000000" style="" class=""/><circle cx="339" cy="475.999" r="10" fill="#fed136" data-original="#000000" style="" class=""/><path d="m502 225.999h-326c-5.523 0-10 4.478-10 10 0 16.542-13.458 30-30 30s-30-13.458-30-30c0-5.522-4.477-10-10-10h-86c-5.523 0-10 4.478-10 10v240c0 5.522 4.477 10 10 10h86c5.523 0 10-4.478 10-10 0-16.542 13.458-30 30-30s30 13.458 30 30c0 5.522 4.477 10 10 10h118c5.523 0 10-4.478 10-10s-4.477-10-10-10h-109.004c-3.987-19.561-19.435-34.995-38.996-38.983v-11.017c0-5.522-4.477-10-10-10s-10 4.478-10 10v11.017c-19.56 3.988-35.008 19.423-38.996 38.983h-67.004v-220h67.004c3.987 19.561 19.435 34.995 38.996 38.983v11.017c0 5.522 4.477 10 10 10s10-4.478 10-10v-11.017c19.56-3.988 35.008-19.423 38.996-38.983h307.004v220h-108c-5.523 0-10 4.478-10 10s4.477 10 10 10h118c5.523 0 10-4.478 10-10v-240c0-5.522-4.477-10-10-10z" fill="#fed136" data-original="#000000" style="" class=""/></g></g></svg>
